<?xml version="1.0" encoding="UTF-8" standalone="no"?><!DOCTYPE svg PUBLIC "-//W3C//DTD SVG 1.1//EN" "http://www.w3.org/Graphics/SVG/1.1/DTD/svg11.dtd"><svg width="100%" height="100%" viewBox="0 0 20 11" version="1.1" xmlns="http://www.w3.org/2000/svg" xmlns:xlink="http://www.w3.org/1999/xlink" xml:space="preserve" xmlns:serif="http://www.serif.com/" style="fill-rule:evenodd;clip-rule:evenodd;stroke-linejoin:round;stroke-miterlimit:1.41421;"><path d="M19.75,5.25c0,0.378 -0.307,0.685 -0.685,0.685l-16.497,0l3.164,3.16c0.131,0.131 0.199,0.307 0.199,0.482c0,0.175 -0.068,0.35 -0.199,0.482c-0.267,0.267 -0.701,0.267 -0.968,0l-4.323,-4.327c-0.255,-0.255 -0.255,-0.709 0,-0.968l4.327,-4.323c0.267,-0.267 0.701,-0.267 0.968,0c0.267,0.267 0.267,0.701 0,0.968l-3.16,3.16l16.493,0c0.378,-0.004 0.681,0.303 0.681,0.681Z" style="fill:#29304d;fill-rule:nonzero;"/></svg>